HIERARCHY
ROOT joint_Root
{
	OFFSET 0.0 0.0 0.0
	CHANNELS 6 Xposition Yposition Zposition Zrotation Xrotation Yrotation 
	JOINT Hips
	{
		OFFSET -17.1583 93.1646 452.98
		CHANNELS 6 Xposition Yposition Zposition Zrotation Xrotation Yrotation 
		JOINT Spine
		{
			OFFSET 15.7357 0.0 0.0
			CHANNELS 6 Xposition Yposition Zposition Zrotation Xrotation Yrotation 
			JOINT Chest
			{
				OFFSET 8.98455 -0.406207 0.0
				CHANNELS 6 Xposition Yposition Zposition Zrotation Xrotation Yrotation 
				JOINT Neck
				{
					OFFSET 16.3773 0.0 0.0
					CHANNELS 6 Xposition Yposition Zposition Zrotation Xrotation Yrotation 
					JOINT Head
					{
						OFFSET 6.45672 0.0 0.0
						CHANNELS 6 Xposition Yposition Zposition Zrotation Xrotation Yrotation 
						End Site
						{
							OFFSET 0.0 0.0 0.0
						}
					}
				}
				JOINT Shoulder_L
				{
					OFFSET 12.9942 -0.242716 4.98039
					CHANNELS 6 Xposition Yposition Zposition Zrotation Xrotation Yrotation 
					JOINT UpperArm_L
					{
						OFFSET 5.34809 0.0 0.0
						CHANNELS 6 Xposition Yposition Zposition Zrotation Xrotation Yrotation 
						JOINT LowerArm_L
						{
							OFFSET 24.3286 1.87007e-05 0.0
							CHANNELS 6 Xposition Yposition Zposition Zrotation Xrotation Yrotation 
							JOINT Hand_L
							{
								OFFSET 22.2916 0.0 0.0
								CHANNELS 6 Xposition Yposition Zposition Zrotation Xrotation Yrotation 
								End Site
								{
									OFFSET 0.0 0.0 0.0
								}
							}
						}
					}
				}
				JOINT Shoulder_R
				{
					OFFSET 12.9945 -0.242716 -4.98039
					CHANNELS 6 Xposition Yposition Zposition Zrotation Xrotation Yrotation 
					JOINT UpperArm_R
					{
						OFFSET -5.34813 0.0 0.0
						CHANNELS 6 Xposition Yposition Zposition Zrotation Xrotation Yrotation 
						JOINT LowerArm_R
						{
							OFFSET -24.3289 0.000322201 0.0
							CHANNELS 6 Xposition Yposition Zposition Zrotation Xrotation Yrotation 
							JOINT Hand_R
							{
								OFFSET -22.2915 -0.000108084 0.0
								CHANNELS 6 Xposition Yposition Zposition Zrotation Xrotation Yrotation 
								End Site
								{
									OFFSET 0.0 0.0 0.0
								}
							}
						}
					}
				}
			}
		}
		JOINT UpperLeg_L
		{
			OFFSET -2.19248 -6.46944 0.0
			CHANNELS 6 Xposition Yposition Zposition Zrotation Xrotation Yrotation 
			JOINT LowerLeg_L
			{
				OFFSET 39.0811 0.0 -1.23785e-05
				CHANNELS 6 Xposition Yposition Zposition Zrotation Xrotation Yrotation 
				JOINT Foot_L
				{
					OFFSET 40.9854 0.0 -1.26872e-05
					CHANNELS 6 Xposition Yposition Zposition Zrotation Xrotation Yrotation 
					JOINT Toes_L
					{
						OFFSET 11.7543 0.0 0.0
						CHANNELS 6 Xposition Yposition Zposition Zrotation Xrotation Yrotation 
						End Site
						{
							OFFSET 0.0 0.0 0.0
						}
					}
				}
			}
		}
		JOINT UpperLeg_R
		{
			OFFSET -2.19251 6.46944 0.0
			CHANNELS 6 Xposition Yposition Zposition Zrotation Xrotation Yrotation 
			JOINT LowerLeg_R
			{
				OFFSET -39.0811 -0.00228153 -0.0401928
				CHANNELS 6 Xposition Yposition Zposition Zrotation Xrotation Yrotation 
				JOINT Foot_R
				{
					OFFSET -40.9854 0.0 0.0
					CHANNELS 6 Xposition Yposition Zposition Zrotation Xrotation Yrotation 
					JOINT Toes_R
					{
						OFFSET -11.7543 0.0 0.0
						CHANNELS 6 Xposition Yposition Zposition Zrotation Xrotation Yrotation 
						End Site
						{
							OFFSET 0.0 0.0 0.0
						}
					}
				}
			}
		}
	}
}
MOTION
Frames:	4
Frame Time:	0.0333333
0.000000 0.000000 0.000000 0.000000 0.000000 -0.000000 -1.022310 92.969600 -2.652650 87.207900 2.321500 2.919130 15.735700 0.000005 -0.000001 70.796400 86.851400 -68.948900 8.984550 -0.406207 -0.000000 -1.781080 -2.224670 3.660010 16.377300 -0.000001 -0.000001 4.345700 1.540770 -2.215730 6.456720 -0.000001 -0.000000 0.812065 0.464522 -1.642140 12.994200 -0.242716 4.980390 -92.460600 7.288880 -71.288500 5.348090 -0.000007 -0.000001 -74.332500 23.810600 1.393320 24.328600 0.000019 0.000005 12.713000 27.898900 -25.740300 22.291600 -0.000001 0.000005 -2.462690 5.029560 6.684160 12.994500 -0.242716 -4.980390 88.734200 3.973210 -72.313300 -5.348130 -0.000001 -0.000004 -71.997000 26.816900 -2.896300 -24.328900 0.000322 -0.000009 3.589870 10.551600 -18.916700 -22.291500 -0.000108 -0.000004 0.291814 5.290860 0.327541 -2.192480 -6.469440 -0.000000 -176.380000 4.198980 -3.163910 39.081100 -0.000007 -0.000012 0.201609 -0.527266 20.925500 40.985400 -0.000006 -0.000013 2.089060 9.617450 -71.135500 11.754300 -0.000000 0.000003 0.000644 0.155981 -10.250800 -2.192510 6.469440 -0.000001 -175.216000 5.990820 -178.509000 -39.081100 -0.002282 -0.040193 0.046281 -0.172308 13.996100 -40.985400 0.000008 0.000006 0.105963 0.209359 -68.745200 -11.754300 -0.000006 -0.000006 -0.008580 0.260372 -5.997940
0.000000 0.000000 0.000000 0.000000 0.000000 -0.000000 -1.085600 92.971400 -2.682740 87.171400 2.310460 2.839590 15.735700 0.000005 -0.000001 70.537500 86.857900 -68.685800 8.984550 -0.406207 -0.000000 -1.802360 -2.247860 3.667760 16.377300 -0.000001 -0.000001 4.211610 1.532180 -2.167790 6.456720 -0.000001 -0.000000 0.778907 0.516892 -1.558620 12.994200 -0.242716 4.980390 -92.454300 7.252140 -71.245800 5.348090 -0.000007 -0.000001 -74.385400 23.710600 1.397760 24.328600 0.000019 0.000005 12.699900 27.874700 -25.734300 22.291600 -0.000001 0.000005 -2.349220 5.027150 6.736660 12.994500 -0.242716 -4.980390 88.712000 4.025890 -72.243000 -5.348130 -0.000001 -0.000004 -71.663600 24.946900 -2.658950 -24.328900 0.000322 -0.000009 3.746410 10.296300 -20.125200 -22.291500 -0.000108 -0.000004 -0.006733 5.279280 0.646451 -2.192480 -6.469440 -0.000000 -176.293000 4.298750 -3.282810 39.081100 -0.000007 -0.000012 0.200072 -0.522744 20.943900 40.985400 -0.000006 -0.000013 2.027380 9.578590 -71.083600 11.754300 -0.000000 0.000003 0.000775 0.153357 -10.357300 -2.192510 6.469440 -0.000001 -175.116000 5.942860 -178.574000 -39.081100 -0.002282 -0.040193 0.046000 -0.172203 13.916200 -40.985400 0.000008 0.000006 0.203288 0.180211 -68.704000 -11.754300 -0.000006 -0.000006 -0.008743 0.261661 -5.945240
0.000000 0.000000 0.000000 0.000000 0.000000 -0.000000 -1.154820 92.978200 -2.705980 87.150800 2.330900 2.761790 15.735700 0.000005 -0.000001 70.363400 86.858600 -68.505000 8.984550 -0.406207 -0.000000 -1.809560 -2.266090 3.680770 16.377300 -0.000001 -0.000001 4.078800 1.499650 -2.089590 6.456720 -0.000001 -0.000000 0.682941 0.498706 -1.458030 12.994200 -0.242716 4.980390 -92.457000 7.256590 -71.237000 5.348090 -0.000007 -0.000001 -74.418600 23.602400 1.400680 24.328600 0.000019 0.000005 12.728300 27.894300 -25.771600 22.291600 -0.000001 0.000005 -2.328320 5.025760 6.766720 12.994500 -0.242716 -4.980390 88.691400 4.064080 -72.135100 -5.348130 -0.000001 -0.000004 -71.296100 21.881800 -2.198230 -24.328900 0.000322 -0.000009 4.344360 10.656700 -22.338100 -22.291500 -0.000108 -0.000004 -0.787002 5.257990 1.224190 -2.192480 -6.469440 -0.000000 -176.220000 4.331670 -3.379250 39.081100 -0.000007 -0.000012 0.201626 -0.527037 20.935500 40.985400 -0.000006 -0.000013 1.967150 9.566980 -71.120200 11.754300 -0.000000 0.000003 0.000569 0.157421 -10.192400 -2.192510 6.469440 -0.000001 -175.042000 5.930380 -178.649000 -39.081100 -0.002282 -0.040193 0.044778 -0.168013 13.857200 -40.985400 0.000008 0.000006 0.133604 0.159667 -68.647200 -11.754300 -0.000006 -0.000006 -0.008847 0.262475 -5.911990
0.000000 0.000000 0.000000 0.000000 0.000000 -0.000000 -1.212700 92.983900 -2.739600 87.125500 2.304750 2.654700 15.735700 0.000005 -0.000001 69.943500 86.879000 -68.067500 8.984550 -0.406207 -0.000000 -1.862770 -2.297670 3.714260 16.377300 -0.000001 -0.000001 3.984550 1.462900 -2.009270 6.456720 -0.000001 -0.000000 0.556284 0.469197 -1.293010 12.994200 -0.242716 4.980390 -92.463800 7.273020 -71.228000 5.348090 -0.000007 -0.000001 -74.474600 23.530200 1.525560 24.328600 0.000019 0.000005 12.714300 27.780600 -25.830400 22.291600 -0.000001 0.000005 -2.363460 5.025280 6.777130 12.994500 -0.242716 -4.980390 88.678900 4.074400 -72.017800 -5.348130 -0.000001 -0.000004 -70.895400 18.274900 -1.317730 -24.328900 0.000322 -0.000009 4.953260 10.230900 -26.016700 -22.291500 -0.000108 -0.000004 -1.391450 5.213250 2.386110 -2.192480 -6.469440 -0.000000 -176.155000 4.419760 -3.490890 39.081100 -0.000007 -0.000012 0.201040 -0.526100 20.913800 40.985400 -0.000006 -0.000013 1.897020 9.454750 -71.084100 11.754300 -0.000000 0.000003 0.000679 0.155281 -10.279200 -2.192510 6.469440 -0.000001 -174.964000 5.929740 -178.744000 -39.081100 -0.002282 -0.040193 0.044055 -0.166057 13.778900 -40.985400 0.000008 0.000006 0.166678 0.157487 -68.600200 -11.754300 -0.000006 -0.000006 -0.008975 0.263479 -5.870960
